<?xml version="1.0" standalone="no"?>
<!DOCTYPE svg PUBLIC "-//W3C//DTD SVG 20010904//EN"
 "http://www.w3.org/TR/2001/REC-SVG-20010904/DTD/svg10.dtd">
<svg version="1.0" xmlns="http://www.w3.org/2000/svg"
 width="1863.000000pt" height="968.000000pt" viewBox="0 0 1863.000000 968.000000"
 preserveAspectRatio="xMidYMid meet">
<metadata>
Created by potrace 1.16, written by Peter Selinger 2001-2019
</metadata>
<g transform="translate(0.000000,968.000000) scale(0.100000,-0.100000)"
fill="#000000" stroke="none">
<path d="M3331 9536 c-26 -64 -70 -106 -134 -131 l-45 -17 125 -149 c69 -82
132 -149 140 -149 56 0 193 130 193 184 0 14 -233 308 -248 314 -5 1 -18 -22
-31 -52z"/>
<path d="M3416 9562 c-3 -5 44 -71 104 -146 l110 -137 -16 -32 c-32 -61 -85
-114 -145 -147 -74 -39 -72 -50 5 -16 31 14 56 23 56 20 0 -3 -27 -17 -60 -32
l-59 -27 42 -1 c23 0 33 2 22 4 -14 3 -6 9 30 23 27 10 51 17 53 15 2 -2 -6
-7 -19 -11 -17 -6 -19 -9 -8 -16 9 -7 4 -8 -16 -3 -21 4 -26 3 -16 -4 10 -7 0
-14 -38 -27 -32 -10 -51 -22 -51 -32 0 -8 6 -13 13 -11 6 3 69 24 140 48 113
38 127 45 127 66 l0 23 -66 -30 c-83 -38 -95 -33 -13 6 33 16 65 35 71 42 18
22 -3 15 -54 -18 -27 -17 -51 -29 -54 -27 -2 3 25 24 61 47 36 23 65 46 65 50
0 5 -7 14 -15 21 -14 11 -23 7 -63 -31 l-47 -44 46 50 c25 28 51 57 57 67 11
14 -4 35 -104 150 -148 170 -150 172 -158 160z"/>
<path d="M3150 9327 c0 -45 5 -52 103 -171 57 -68 113 -136 125 -152 l21 -29
1 50 c0 49 -2 52 -121 195 -66 80 -123 147 -125 149 -2 2 -4 -17 -4 -42z"/>
<path d="M2770 8810 l0 -80 40 0 c31 0 43 5 56 25 13 19 14 28 5 39 -7 8 -9
25 -6 39 9 33 -17 57 -61 57 l-34 0 0 -80z"/>
<path d="M2927 8870 c-21 -17 -27 -30 -27 -61 0 -50 27 -79 75 -79 45 0 75 29
75 74 0 69 -70 107 -123 66z"/>
<path d="M3105 8865 c-51 -51 -21 -135 48 -135 52 0 77 24 77 73 0 48 -6 59
-37 76 -34 17 -62 13 -88 -14z"/>
<path d="M3583 8868 c3 -12 11 -49 18 -80 11 -49 17 -58 35 -58 18 0 24 9 34
50 7 28 16 50 20 50 4 0 13 -22 20 -50 9 -39 16 -50 31 -50 22 0 22 0 48 93
19 65 19 67 1 67 -14 0 -21 -13 -31 -57 l-13 -56 -12 34 c-7 19 -13 44 -13 57
-1 17 -7 22 -26 22 -19 0 -26 -7 -34 -37 -6 -21 -11 -44 -11 -52 0 -25 -15 -1
-25 42 -7 28 -17 43 -29 45 -15 3 -18 -1 -13 -20z"/>
<path d="M7100 4410 c0 -16 7 -20 35 -20 l35 0 0 -95 c0 -95 0 -95 25 -95 25
0 25 0 25 95 l0 95 35 0 c28 0 35 4 35 20 0 19 -7 20 -95 20 -88 0 -95 -1 -95
-20z"/>
<path d="M7790 4384 c0 -45 0 -45 -22 -30 -30 21 -50 20 -82 -5 -21 -16 -26
-29 -26 -64 0 -35 5 -48 26 -64 30 -24 55 -26 87 -10 16 9 22 9 25 0 2 -6 13
-11 24 -11 16 0 19 5 14 23 -3 12 -6 64 -6 115 0 85 -1 92 -20 92 -17 0 -20
-7 -20 -46z"/>
<path d="M9050 4315 c0 -93 3 -115 14 -115 8 0 16 5 18 11 3 9 10 8 24 -1 12
-7 32 -10 47 -6 56 14 80 67 54 122 -19 38 -55 52 -93 35 -23 -10 -24 -9 -24
29 0 33 -3 40 -20 40 -19 0 -20 -7 -20 -115z"/>
<path d="M9700 4315 c0 -107 1 -115 19 -115 15 0 21 8 23 32 4 44 22 45 48 3
12 -20 30 -35 41 -35 25 0 24 4 -10 54 l-30 43 30 36 c25 31 27 37 13 37 -10
0 -35 -17 -56 -37 l-38 -37 0 67 c0 60 -2 67 -20 67 -19 0 -20 -7 -20 -115z"/>
<path d="M7482 4359 c-25 -9 -25 -37 -1 -30 8 3 28 5 44 5 23 1 31 -4 33 -20
3 -18 -1 -20 -28 -16 -36 5 -80 -20 -80 -47 0 -23 31 -51 56 -51 11 0 29 7 41
15 19 13 22 13 27 0 3 -8 12 -15 20 -15 24 0 10 129 -16 153 -22 18 -59 21
-96 6z"/>
<path d="M7909 4341 c-17 -18 -29 -40 -29 -56 0 -37 50 -85 88 -85 31 0 82 33
70 45 -4 4 -21 2 -37 -5 -33 -13 -66 -7 -75 15 -4 12 7 15 59 15 63 0 65 1 65
25 0 14 -11 37 -25 50 -34 35 -78 33 -116 -4z"/>
<path d="M8180 4362 c0 -4 14 -43 30 -85 23 -61 28 -83 20 -98 -6 -10 -15 -19
-20 -19 -6 0 -10 -7 -10 -15 0 -18 30 -20 52 -2 8 6 30 55 48 107 18 52 35
101 38 108 2 7 -4 12 -15 12 -15 0 -24 -13 -38 -60 -10 -33 -21 -57 -25 -53
-4 4 -15 32 -26 61 -13 37 -23 52 -36 52 -10 0 -18 -3 -18 -8z"/>
<path d="M8400 4342 c-39 -39 -39 -74 -1 -113 38 -37 82 -39 116 -4 50 50 23
130 -47 142 -32 5 -41 1 -68 -25z"/>
<path d="M9305 4358 c-31 -18 -44 -40 -44 -73 0 -34 14 -56 48 -74 31 -17 87
-6 106 22 20 29 19 80 -2 106 -21 26 -80 36 -108 19z"/>
<path d="M9505 4347 c-58 -49 -20 -147 56 -147 39 0 89 48 89 85 0 37 -50 85
-89 85 -17 0 -41 -10 -56 -23z"/>
<path d="M10325 4345 c-50 -49 -17 -145 49 -145 85 0 125 83 67 141 -38 37
-82 39 -116 4z"/>
<path d="M11055 4347 c-20 -17 -27 -33 -28 -61 -2 -71 80 -111 134 -67 32 26
19 36 -25 20 -28 -10 -38 -10 -50 0 -29 24 -17 31 49 31 59 0 65 2 65 21 0 11
-13 34 -29 50 -36 36 -79 38 -116 6z"/>
<path d="M11265 4345 c-36 -35 -35 -96 1 -124 15 -12 37 -21 50 -21 32 0 74
21 74 37 0 15 -26 18 -35 3 -14 -22 -75 -4 -75 22 0 4 29 8 65 8 59 0 65 2 65
21 0 11 -13 34 -29 50 -38 37 -82 39 -116 4z"/>
</g>
</svg>
