<?xml version="1.0" standalone="no"?>
<!DOCTYPE svg PUBLIC "-//W3C//DTD SVG 20010904//EN"
 "http://www.w3.org/TR/2001/REC-SVG-20010904/DTD/svg10.dtd">
<svg version="1.0" xmlns="http://www.w3.org/2000/svg"
 width="1864.000000pt" height="969.000000pt" viewBox="0 0 1864.000000 969.000000"
 preserveAspectRatio="xMidYMid meet">
<metadata>
Created by potrace 1.16, written by Peter Selinger 2001-2019
</metadata>
<g transform="translate(0.000000,969.000000) scale(0.100000,-0.100000)"
fill="#000000" stroke="none">
<path d="M0 4845 l0 -4845 9320 0 9320 0 0 4845 0 4845 -9320 0 -9320 0 0
-4845z m9483 286 c60 -29 111 -80 145 -146 23 -43 27 -63 27 -135 0 -72 -4
-92 -27 -135 -34 -65 -85 -117 -145 -146 -39 -20 -64 -24 -133 -24 -69 0 -94
4 -133 24 -60 29 -111 81 -145 146 -23 43 -27 63 -27 135 0 70 4 93 24 130 44
84 100 135 179 165 57 22 176 15 235 -14z"/>
<path d="M9282 4979 c-108 -54 -107 -206 1 -258 24 -12 54 -21 67 -21 45 0
109 40 130 81 40 77 13 161 -63 198 -55 26 -81 26 -135 0z"/>
</g>
</svg>
