<?xml version="1.0" standalone="no"?>
<!DOCTYPE svg PUBLIC "-//W3C//DTD SVG 20010904//EN"
 "http://www.w3.org/TR/2001/REC-SVG-20010904/DTD/svg10.dtd">
<svg version="1.0" xmlns="http://www.w3.org/2000/svg"
 width="1868.000000pt" height="967.000000pt" viewBox="0 0 1868.000000 967.000000"
 preserveAspectRatio="xMidYMid meet">
<metadata>
Created by potrace 1.16, written by Peter Selinger 2001-2019
</metadata>
<g transform="translate(0.000000,967.000000) scale(0.100000,-0.100000)"
fill="#000000" stroke="none">
<path d="M0 4835 l0 -4835 9340 0 9340 0 0 4835 0 4835 -9340 0 -9340 0 0
-4835z m3755 4620 c28 -27 33 -55 10 -55 -8 0 -15 6 -15 14 0 43 -64 60 -95
26 -29 -32 -10 -71 42 -90 58 -22 83 -47 83 -86 0 -67 -95 -100 -145 -49 -25
24 -33 55 -16 55 5 0 13 -9 16 -21 14 -44 93 -50 115 -9 18 34 2 59 -58 88
-65 31 -86 61 -71 101 13 35 37 51 76 51 23 0 42 -8 58 -25z m105 -40 l0 -65
65 0 65 0 0 65 c0 37 4 65 10 65 6 0 10 -55 10 -145 0 -90 -4 -145 -10 -145
-6 0 -10 30 -10 70 l0 70 -65 0 -65 0 0 -70 c0 -56 -3 -70 -15 -70 -13 0 -15
23 -15 145 0 122 2 145 15 145 12 0 15 -14 15 -65z m365 39 c45 -48 44 -196
-1 -241 -31 -31 -84 -31 -121 1 -27 23 -28 27 -28 121 0 94 1 98 28 121 39 33
90 32 122 -2z m637 -3 c32 -29 33 -31 33 -116 0 -85 -1 -87 -33 -116 -26 -24
-41 -29 -82 -29 l-50 0 0 145 0 145 50 0 c41 0 56 -5 82 -29z m525 14 c60 -42
56 -232 -5 -264 -12 -6 -33 -11 -47 -11 -64 0 -95 47 -95 145 0 69 17 116 47
134 26 15 76 13 100 -4z m515 -14 c32 -29 33 -31 33 -116 0 -85 -1 -87 -33
-116 -28 -25 -40 -29 -92 -29 l-60 0 0 145 0 145 60 0 c52 0 64 -4 92 -29z
m229 19 c32 -18 49 -64 49 -135 0 -103 -30 -145 -105 -145 -72 0 -105 46 -105
146 0 63 11 95 41 123 25 23 86 28 120 11z m249 -135 l0 -145 -35 0 -35 0 0
145 0 145 35 0 35 0 0 -145z m220 120 c0 -22 -4 -25 -35 -25 l-35 0 0 -120 0
-120 -30 0 -30 0 0 120 0 120 -35 0 c-31 0 -35 3 -35 25 l0 25 100 0 100 0 0
-25z m760 -1110 c0 -36 2 -65 5 -65 3 0 14 5 24 11 10 7 30 9 45 5 41 -10 56
-57 56 -171 l0 -95 -35 0 -34 0 -3 103 c-3 101 -3 102 -28 102 -25 0 -25 -1
-28 -102 l-3 -103 -34 0 -35 0 0 190 0 190 35 0 35 0 0 -65z m880 -120 l0
-185 -30 0 c-16 0 -30 4 -30 10 0 5 -13 2 -28 -7 -66 -38 -112 12 -112 122 0
106 42 156 106 126 l24 -11 0 65 0 65 35 0 35 0 0 -185z m3010 -1 l0 -187 -36
6 c-20 3 -44 1 -53 -5 -26 -16 -68 -2 -88 29 -13 20 -18 47 -18 98 0 51 5 78
18 98 20 31 62 45 88 28 10 -6 21 -11 24 -11 3 0 5 29 5 65 l0 65 30 0 30 0 0
-186z m-4261 59 c7 -57 18 -103 22 -103 5 0 9 7 9 16 0 9 7 56 16 105 16 87
17 89 45 89 25 0 29 -5 35 -37 22 -124 32 -175 36 -179 3 -2 10 35 17 83 18
131 19 133 52 133 36 0 36 3 4 -175 -35 -198 -30 -185 -69 -185 l-33 0 -18
100 c-10 55 -22 97 -25 93 -4 -5 -15 -50 -25 -100 l-17 -93 -33 0 c-28 0 -34
4 -39 28 -12 54 -56 307 -56 320 0 9 11 12 33 10 l32 -3 14 -102z m4721 82
c39 -35 33 -100 -15 -157 -14 -16 -25 -38 -25 -49 0 -14 -7 -19 -30 -19 -25 0
-30 4 -30 23 0 13 14 44 31 70 35 53 36 90 2 95 -14 2 -23 -3 -28 -17 -4 -15
-15 -21 -36 -21 -39 0 -39 32 1 72 27 27 36 30 71 25 22 -3 49 -13 59 -22z
m-3860 -40 c0 -28 4 -35 20 -35 15 0 20 -7 20 -25 0 -18 -5 -25 -20 -25 -18 0
-20 -7 -20 -71 0 -63 2 -71 21 -76 15 -4 19 -12 17 -32 -4 -35 -48 -41 -77
-12 -18 18 -21 34 -21 106 0 69 -3 85 -15 85 -9 0 -15 9 -15 25 0 16 6 25 15
25 10 0 15 11 15 35 0 32 2 35 30 35 28 0 30 -3 30 -35z m2510 0 c0 -28 4 -35
20 -35 15 0 20 -7 20 -25 0 -18 -5 -25 -20 -25 -18 0 -20 -7 -20 -71 0 -63 2
-71 21 -76 15 -4 19 -12 17 -32 -4 -32 -38 -40 -74 -17 -22 15 -24 22 -24 106
0 73 -3 90 -15 90 -9 0 -15 9 -15 25 0 16 6 25 15 25 10 0 15 11 15 35 0 32 2
35 30 35 28 0 30 -3 30 -35z m270 0 c0 -24 5 -35 15 -35 9 0 15 -9 15 -25 0
-16 -6 -25 -15 -25 -12 0 -15 -15 -15 -75 0 -68 2 -75 20 -75 22 0 23 -3 14
-37 -5 -17 -14 -23 -33 -23 -53 0 -71 36 -71 141 0 55 -3 69 -15 69 -9 0 -15
9 -15 25 0 16 6 25 15 25 10 0 15 11 15 35 0 33 2 35 35 35 33 0 35 -2 35 -35z
m-2928 -55 c14 -18 18 -41 18 -115 0 -51 3 -100 6 -109 5 -13 -1 -16 -30 -16
-20 0 -36 5 -36 10 0 7 -6 7 -19 0 -46 -24 -97 2 -107 56 -8 44 27 83 84 91
45 6 57 28 27 53 -13 10 -19 10 -33 -4 -22 -19 -72 -22 -72 -3 0 60 121 88
162 37z m737 16 c15 -8 32 -26 39 -41 17 -36 15 -130 -3 -164 -31 -60 -127
-65 -168 -9 -27 37 -29 143 -3 182 29 45 84 58 135 32z m581 1 c32 -16 60 -72
60 -120 0 -117 -95 -177 -172 -108 -32 28 -33 32 -33 106 0 74 1 78 33 106 35
31 71 37 112 16z m935 -12 c23 -22 25 -32 25 -112 0 -48 3 -98 6 -110 6 -20 3
-23 -24 -23 -17 0 -34 5 -37 10 -4 7 -12 7 -25 0 -51 -27 -100 6 -100 68 0 48
24 72 79 79 44 6 55 29 26 53 -13 10 -19 10 -33 -4 -22 -19 -72 -22 -72 -3 0
6 6 19 13 28 35 45 105 52 142 14z m251 4 c16 -18 20 -40 22 -135 l4 -114 -36
0 -36 0 0 106 0 105 -27 -3 -28 -3 -3 -102 -3 -103 -29 0 -30 0 0 130 0 130
30 0 c17 0 30 -5 30 -11 0 -5 10 -3 22 5 31 22 61 20 84 -5z m637 10 c37 -17
57 -60 57 -124 0 -97 -51 -149 -127 -129 -49 12 -75 51 -80 116 -8 108 66 175
150 137z m616 -3 c15 -8 32 -26 39 -41 17 -36 15 -130 -3 -164 -31 -60 -127
-65 -168 -9 -27 37 -29 143 -3 182 29 45 84 58 135 32z m-2738 -66 c7 -38 15
-70 18 -70 4 0 13 30 21 68 15 67 15 67 51 70 l37 3 -49 -168 c-50 -175 -68
-207 -113 -201 -30 4 -36 58 -7 58 35 0 34 39 -3 170 -20 69 -36 128 -36 132
0 4 15 8 34 8 l34 0 13 -70z m471 -27 c3 -97 3 -98 28 -98 25 0 25 1 28 98 l3
97 34 0 35 0 0 -130 0 -130 -29 0 c-16 0 -31 5 -33 10 -2 7 -14 6 -35 -2 -73
-27 -103 22 -103 170 l0 82 35 0 34 0 3 -97z m342 80 c3 -10 8 -39 12 -65 3
-27 9 -48 13 -48 4 0 13 29 20 65 12 58 16 65 37 65 24 0 32 -18 50 -110 6
-28 8 -30 14 -14 4 10 11 43 15 72 6 49 8 52 36 52 19 0 29 -5 29 -15 0 -13
-22 -120 -45 -223 -5 -18 -11 -23 -32 -20 -24 3 -29 10 -43 65 -8 34 -18 64
-21 68 -4 3 -14 -26 -24 -65 -16 -65 -19 -70 -44 -70 -26 0 -28 3 -50 113 -12
61 -25 120 -27 130 -4 13 1 17 25 17 20 0 31 -6 35 -17z"/>
<path d="M4127 9448 c-51 -39 -48 -200 3 -228 29 -16 49 -12 75 15 22 21 25
33 25 100 0 67 -3 79 -25 100 -27 28 -53 32 -78 13z"/>
<path d="M4750 9335 l0 -125 35 0 c25 0 44 8 60 25 22 21 25 33 25 100 0 67
-3 79 -25 100 -16 17 -35 25 -60 25 l-35 0 0 -125z"/>
<path d="M5290 9440 c-17 -17 -20 -33 -20 -105 0 -94 16 -125 65 -125 47 0 65
34 65 126 0 77 -2 84 -26 103 -33 26 -58 27 -84 1z"/>
</g>
</svg>
