<?xml version="1.0" standalone="no"?>
<!DOCTYPE svg PUBLIC "-//W3C//DTD SVG 20010904//EN"
 "http://www.w3.org/TR/2001/REC-SVG-20010904/DTD/svg10.dtd">
<svg version="1.0" xmlns="http://www.w3.org/2000/svg"
 width="1860.000000pt" height="965.000000pt" viewBox="0 0 1860.000000 965.000000"
 preserveAspectRatio="xMidYMid meet">
<metadata>
Created by potrace 1.16, written by Peter Selinger 2001-2019
</metadata>
<g transform="translate(0.000000,965.000000) scale(0.100000,-0.100000)"
fill="#000000" stroke="none">
<path d="M0 9190 l0 -460 9300 0 9300 0 0 460 0 460 -9300 0 -9300 0 0 -460z"/>
<path d="M6050 6865 c0 -22 4 -25 40 -25 l40 0 0 -120 0 -120 30 0 30 0 0 120
0 120 40 0 c36 0 40 3 40 25 l0 25 -110 0 -110 0 0 -25z"/>
<path d="M6310 6745 l0 -145 30 0 30 0 0 145 0 145 -30 0 -30 0 0 -145z"/>
<path d="M6505 6871 c-53 -24 -75 -64 -75 -135 0 -50 4 -60 33 -91 35 -39 81
-52 141 -41 32 6 36 11 36 36 0 28 -2 29 -27 19 -61 -23 -123 18 -123 82 0 68
62 113 123 90 25 -10 27 -9 27 18 0 46 -62 56 -135 22z"/>
<path d="M6780 6866 c0 -21 5 -25 38 -28 l37 -3 3 -117 3 -118 29 0 30 0 0
120 0 120 40 0 c36 0 40 3 40 25 l0 25 -110 0 c-110 0 -110 0 -110 -24z"/>
<path d="M7075 6878 c-29 -81 -95 -270 -95 -274 0 -2 14 -4 31 -4 24 0 32 6
40 30 10 28 14 30 64 30 51 0 54 -1 60 -30 6 -26 11 -30 41 -30 19 0 34 1 34
3 0 1 -22 65 -49 142 l-49 140 -36 3 c-23 2 -38 -2 -41 -10z"/>
<path d="M7345 6871 c-53 -24 -75 -64 -75 -135 0 -50 4 -60 33 -91 35 -39 81
-52 141 -41 32 6 36 11 36 36 0 28 -2 29 -27 19 -61 -23 -123 18 -123 82 0 68
62 113 123 90 25 -10 27 -9 27 18 0 46 -62 56 -135 22z"/>
<path d="M7620 6866 c0 -21 5 -25 38 -28 l37 -3 3 -117 3 -118 29 0 30 0 0
120 0 120 40 0 c36 0 40 3 40 25 l0 25 -110 0 c-110 0 -110 0 -110 -24z"/>
<path d="M7923 6876 c-48 -22 -73 -69 -73 -139 0 -54 3 -62 33 -92 58 -58 135
-59 192 -2 82 83 35 233 -77 243 -25 3 -57 -2 -75 -10z m102 -61 c56 -55 15
-177 -53 -161 -41 10 -62 42 -62 93 0 49 33 93 70 93 12 0 32 -11 45 -25z"/>
<path d="M8170 6745 l0 -145 80 0 c79 0 80 0 80 25 0 23 -3 25 -50 25 l-50 0
0 35 c0 35 0 35 45 35 41 0 45 2 45 25 0 23 -4 25 -45 25 -45 0 -45 0 -45 35
l0 35 50 0 c47 0 50 2 50 25 0 25 -1 25 -80 25 l-80 0 0 -145z"/>
<path d="M5370 4060 l0 -1800 1830 0 1830 0 0 1800 0 1800 -1830 0 -1830 0 0
-1800z m1120 1200 l0 -500 -500 0 -500 0 0 500 0 500 500 0 500 0 0 -500z
m1200 0 l0 -500 -500 0 -500 0 0 500 0 500 500 0 500 0 0 -500z m1200 0 l0
-500 -500 0 -500 0 0 500 0 500 500 0 500 0 0 -500z m-2400 -1200 l0 -500
-500 0 -500 0 0 500 0 500 500 0 500 0 0 -500z m1200 0 l0 -500 -500 0 -500 0
0 500 0 500 500 0 500 0 0 -500z m1200 0 l0 -500 -500 0 -500 0 0 500 0 500
500 0 500 0 0 -500z m-2400 -1200 l0 -500 -500 0 -500 0 0 500 0 500 500 0
500 0 0 -500z m1200 0 l0 -500 -500 0 -500 0 0 500 0 500 500 0 500 0 0 -500z
m1200 0 l0 -500 -500 0 -500 0 0 500 0 500 500 0 500 0 0 -500z"/>
<path d="M5510 5260 l0 -480 480 0 480 0 0 480 0 480 -480 0 -480 0 0 -480z"/>
<path d="M6710 5260 l0 -480 480 0 480 0 0 480 0 480 -480 0 -480 0 0 -480z"/>
<path d="M7910 5260 l0 -480 480 0 480 0 0 480 0 480 -480 0 -480 0 0 -480z"/>
<path d="M5510 4060 l0 -480 480 0 480 0 0 480 0 480 -480 0 -480 0 0 -480z"/>
<path d="M6710 4060 l0 -480 480 0 480 0 0 480 0 480 -480 0 -480 0 0 -480z"/>
<path d="M7910 4060 l0 -480 480 0 480 0 0 480 0 480 -480 0 -480 0 0 -480z"/>
<path d="M5510 2860 l0 -480 480 0 480 0 0 480 0 480 -480 0 -480 0 0 -480z"/>
<path d="M6710 2860 l0 -480 480 0 480 0 0 480 0 480 -480 0 -480 0 0 -480z"/>
<path d="M7910 2860 l0 -480 480 0 480 0 0 480 0 480 -480 0 -480 0 0 -480z"/>
<path d="M11590 4625 c0 -63 4 -105 10 -105 6 0 10 18 10 40 0 37 2 40 29 40
33 0 66 25 76 57 10 35 -34 73 -85 73 l-40 0 0 -105z"/>
<path d="M0 280 l0 -280 9300 0 9300 0 0 280 0 280 -9300 0 -9300 0 0 -280z"/>
</g>
</svg>
