<?xml version="1.0" encoding="UTF-8"?>
<svg xmlns="http://www.w3.org/2000/svg" xmlns:xlink="http://www.w3.org/1999/xlink" width="240pt" height="240pt" viewBox="0 0 240 240" version="1.1">
<defs>
<filter id="alpha" filterUnits="objectBoundingBox" x="0%" y="0%" width="100%" height="100%">
  <feColorMatrix type="matrix" in="SourceGraphic" values="0 0 0 0 1 0 0 0 0 1 0 0 0 0 1 0 0 0 1 0"/>
</filter>
<mask id="mask0">
  <g filter="url(#alpha)">
<rect x="0" y="0" width="240" height="240" style="fill:rgb(0%,0%,0%);fill-opacity:0.0509804;stroke:none;"/>
  </g>
</mask>
<clipPath id="clip1">
  <rect width="240" height="240"/>
</clipPath>
<g id="surface1429260" clip-path="url(#clip1)">
<path style=" stroke:none;fill-rule:nonzero;fill:rgb(100%,100%,100%);fill-opacity:1;" d="M 150.050781 209.980469 L 150 180.988281 C 150 176.296875 148.898438 171.710938 146.789062 167.554688 C 174.996094 161.890625 188.71875 145.214844 188.71875 116.671875 C 188.71875 105.394531 185.394531 95.441406 178.839844 87.070312 C 179.339844 85.484375 179.710938 83.84375 179.941406 82.164062 C 180.878906 75.320312 179.824219 70.84375 178.976562 67.246094 L 178.839844 66.664062 C 177.910156 62.683594 176.796875 59.84375 176.75 59.726562 L 175.640625 56.90625 L 174.128906 56.746094 L 172.613281 56.585938 C 172.613281 56.585938 171.621094 56.480469 170.109375 56.480469 C 168.015625 56.480469 164.910156 56.691406 161.976562 57.683594 L 160.996094 58.015625 C 157.296875 59.261719 153.800781 60.441406 148.910156 63.359375 C 147.480469 64.214844 145.914062 65.191406 144.238281 66.28125 C 136.671875 64.40625 128.523438 63.449219 120 63.449219 C 111.390625 63.449219 103.175781 64.410156 95.554688 66.304688 C 93.859375 65.203125 92.285156 64.21875 90.84375 63.359375 C 85.953125 60.441406 82.460938 59.265625 78.761719 58.015625 L 77.78125 57.683594 C 74.855469 56.691406 71.746094 56.480469 69.648438 56.480469 C 68.140625 56.480469 67.144531 56.585938 67.144531 56.585938 L 65.636719 56.746094 L 64.136719 56.898438 L 63.574219 58.304688 L 63.011719 59.71875 C 62.960938 59.851562 61.84375 62.691406 60.914062 66.675781 L 60.78125 67.25 C 59.929688 70.84375 58.875 75.324219 59.816406 82.164062 C 60.054688 83.894531 60.441406 85.589844 60.964844 87.21875 C 54.539062 95.550781 51.285156 105.449219 51.285156 116.671875 C 51.285156 145.144531 65.023438 161.808594 93.269531 167.519531 C 92.300781 169.460938 91.546875 171.511719 91.011719 173.640625 C 90.023438 173.976562 89.121094 174.199219 88.320312 174.324219 C 87.128906 174.503906 85.886719 174.59375 84.625 174.59375 C 81.195312 174.59375 78.5 173.925781 77.449219 173.300781 C 75.886719 172.371094 73.089844 169.664062 70.378906 165.710938 C 68.066406 162.335938 64.453125 157.921875 60.421875 156.074219 C 56.929688 154.480469 53.234375 153.566406 50.273438 153.566406 C 49.585938 153.566406 48.949219 153.613281 48.394531 153.703125 C 45.808594 154.113281 43.648438 155.535156 42.476562 157.605469 C 41.460938 159.390625 41.300781 161.46875 42.035156 163.308594 C 43.128906 166.050781 46.289062 168.234375 48.75 169.585938 C 49.960938 170.25 52.574219 172.679688 54.101562 175.128906 C 55.246094 176.96875 55.773438 178.28125 56.511719 180.089844 C 56.945312 181.164062 57.425781 182.335938 58.074219 183.75 C 60.425781 188.859375 67.761719 193.371094 68.589844 193.863281 C 72.621094 196.28125 79.394531 197.054688 84.375 197.28125 L 84.988281 197.296875 L 84.996094 197.296875 C 86.195312 197.296875 87.84375 197.179688 90.015625 196.941406 L 90.015625 210.003906 C 90.023438 212.648438 87.328125 213.25 83.765625 213.195312 L 86.5 214.113281 C 96.976562 217.859375 108.226562 220 120 220 C 131.773438 220 143.023438 217.859375 153.515625 214.121094 L 157.03125 212.808594 C 153.476562 212.691406 150.078125 212.109375 150.050781 209.980469 Z M 150.050781 209.980469 "/>
</g>
<mask id="mask1">
  <g filter="url(#alpha)">
<rect x="0" y="0" width="240" height="240" style="fill:rgb(0%,0%,0%);fill-opacity:0.0705882;stroke:none;"/>
  </g>
</mask>
<clipPath id="clip2">
  <rect width="240" height="240"/>
</clipPath>
<g id="surface1429263" clip-path="url(#clip2)">
<path style=" stroke:none;fill-rule:nonzero;fill:rgb(100%,100%,100%);fill-opacity:1;" d="M 153.90625 213.984375 C 151.875 214.21875 147.5 213.441406 147.5 210.011719 L 147.5 180.988281 C 147.5 175.519531 145.859375 170.234375 142.820312 165.730469 C 172.394531 160.945312 186.214844 145.265625 186.214844 116.671875 C 186.214844 105.484375 182.785156 95.699219 176.019531 87.558594 C 176.703125 85.734375 177.183594 83.808594 177.460938 81.824219 C 178.335938 75.445312 177.378906 71.394531 176.539062 67.820312 L 176.40625 67.238281 C 175.515625 63.433594 174.464844 60.753906 174.421875 60.644531 L 173.863281 59.234375 L 172.351562 59.074219 C 172.351562 59.074219 171.460938 58.980469 170.105469 58.980469 C 168.199219 58.980469 165.386719 59.164062 162.773438 60.054688 L 161.796875 60.386719 C 158.226562 61.589844 154.851562 62.726562 150.191406 65.503906 C 148.53125 66.496094 146.679688 67.660156 144.683594 68.976562 C 137.019531 66.96875 128.726562 65.949219 120 65.949219 C 111.191406 65.949219 102.824219 66.976562 95.105469 69 C 93.089844 67.675781 91.230469 66.503906 89.558594 65.503906 C 84.898438 62.726562 81.523438 61.585938 77.953125 60.386719 L 76.976562 60.054688 C 74.371094 59.171875 71.550781 58.980469 69.644531 58.980469 C 68.289062 58.980469 67.398438 59.074219 67.398438 59.074219 L 65.890625 59.234375 L 65.324219 60.648438 C 65.28125 60.761719 64.230469 63.441406 63.339844 67.246094 L 63.203125 67.824219 C 62.359375 71.398438 61.40625 75.445312 62.285156 81.824219 C 62.566406 83.859375 63.066406 85.828125 63.773438 87.695312 C 57.140625 95.796875 53.78125 105.53125 53.78125 116.671875 C 53.78125 145.183594 67.609375 160.859375 97.210938 165.699219 C 95.234375 168.648438 93.855469 171.976562 93.144531 175.519531 C 91.496094 176.171875 90 176.601562 88.691406 176.800781 C 87.375 177 86.003906 177.101562 84.621094 177.101562 C 81.171875 177.101562 77.855469 176.453125 76.171875 175.453125 C 73.96875 174.148438 70.886719 170.886719 68.308594 167.128906 C 66.558594 164.578125 63.074219 160.046875 59.371094 158.355469 C 56.195312 156.90625 52.878906 156.070312 50.265625 156.070312 C 49.714844 156.070312 49.214844 156.109375 48.773438 156.179688 C 46.945312 156.46875 45.433594 157.441406 44.636719 158.851562 C 43.996094 159.96875 43.890625 161.265625 44.339844 162.390625 C 45.234375 164.628906 48.550781 166.640625 49.933594 167.398438 C 51.609375 168.320312 54.53125 171.121094 56.203125 173.820312 C 57.460938 175.839844 58.054688 177.304688 58.808594 179.15625 C 59.234375 180.199219 59.699219 181.339844 60.328125 182.714844 C 61.984375 186.308594 67.09375 190.074219 69.855469 191.730469 C 73.625 193.988281 80.625 194.621094 84.464844 194.789062 L 85.019531 194.800781 C 86.515625 194.800781 89.019531 194.574219 92.496094 194.125 L 92.496094 210.011719 C 92.496094 213.90625 87.539062 214.058594 86.324219 214.058594 C 86.171875 214.058594 88.839844 214.980469 88.839844 214.980469 C 98.65625 218.199219 109.109375 220 120 220 C 130.890625 220 141.34375 218.199219 151.15625 214.984375 C 151.15625 214.984375 154.058594 213.964844 153.90625 213.984375 Z M 153.90625 213.984375 "/>
</g>
</defs>
<g id="surface1429255">
<path style=" stroke:none;fill-rule:nonzero;fill:rgb(100%,100%,100%);fill-opacity:1;" d="M 120 20 C 64.769531 20 20 64.769531 20 120 C 20 164.433594 49.003906 202.054688 89.101562 215.078125 L 150.898438 215.078125 C 190.996094 202.054688 220 164.433594 220 120 C 220 64.769531 175.230469 20 120 20 Z M 120 20 "/>
<use xlink:href="#surface1429260" mask="url(#mask0)"/>
<use xlink:href="#surface1429263" mask="url(#mask1)"/>
<path style=" stroke:none;fill-rule:nonzero;fill:rgb(0%,0%,0%);fill-opacity:1;" d="M 183.71875 116.671875 C 183.71875 105.121094 179.808594 95.539062 173.136719 88.03125 C 173.859375 86.40625 174.613281 84.226562 174.988281 81.484375 C 175.851562 75.234375 174.835938 71.484375 173.976562 67.816406 C 173.113281 64.144531 172.101562 61.566406 172.101562 61.566406 C 172.101562 61.566406 167.488281 61.09375 163.585938 62.425781 C 159.679688 63.753906 156.320312 64.769531 151.476562 67.660156 C 149.210938 69.011719 146.929688 70.488281 145.125 71.691406 C 137.410156 69.550781 128.925781 68.449219 120 68.449219 C 110.996094 68.449219 102.433594 69.554688 94.664062 71.710938 C 92.855469 70.503906 90.558594 69.015625 88.28125 67.65625 C 83.433594 64.765625 80.074219 63.75 76.171875 62.421875 C 72.265625 61.089844 67.65625 61.558594 67.65625 61.558594 C 67.65625 61.558594 66.640625 64.140625 65.78125 67.808594 C 64.921875 71.480469 63.90625 75.230469 64.765625 81.480469 C 65.148438 84.289062 65.929688 86.511719 66.675781 88.144531 C 60.125 95.609375 56.285156 105.128906 56.285156 116.664062 C 56.285156 146.578125 72.445312 160.234375 101.890625 163.839844 C 98.453125 167.46875 96.148438 172.121094 95.375 177.296875 C 93.441406 178.144531 91.210938 178.945312 89.066406 179.265625 C 83.546875 180.101562 77.710938 179.265625 74.898438 177.601562 C 72.089844 175.933594 68.753906 172.183594 66.253906 168.535156 C 64.144531 165.453125 61.101562 161.878906 58.339844 160.621094 C 54.695312 158.953125 51.148438 158.328125 49.175781 158.640625 C 47.195312 158.953125 46.261719 160.410156 46.675781 161.453125 C 47.089844 162.496094 49.070312 164.058594 51.15625 165.203125 C 53.238281 166.351562 56.46875 169.476562 58.34375 172.496094 C 60.433594 175.863281 60.84375 177.808594 62.613281 181.660156 C 63.859375 184.371094 68.121094 187.753906 71.15625 189.574219 C 73.761719 191.140625 78.964844 192.03125 84.59375 192.285156 C 86.539062 192.375 91.136719 191.804688 95.011719 191.253906 L 95.011719 210.003906 C 95.011719 213.199219 92.085938 215.628906 89.054688 215.070312 C 98.78125 218.339844 109.164062 220 120 220 C 130.828125 220 141.214844 218.339844 150.949219 215.078125 C 147.925781 215.636719 145 213.203125 145 210.011719 L 145 180.988281 C 145 174.34375 142.363281 168.339844 138.136719 163.863281 C 167.363281 160.355469 183.71875 147.023438 183.71875 116.671875 Z M 56.195312 163.636719 C 55.425781 163.238281 55.011719 162.511719 55.269531 161.996094 C 55.53125 161.480469 56.371094 161.386719 57.140625 161.78125 C 57.910156 162.175781 58.324219 162.90625 58.066406 163.421875 C 57.804688 163.933594 56.964844 164.03125 56.195312 163.636719 Z M 62.253906 167.410156 C 61.851562 167.851562 60.980469 167.710938 60.308594 167.101562 C 59.640625 166.488281 59.425781 165.636719 59.828125 165.195312 C 60.234375 164.753906 61.105469 164.894531 61.773438 165.503906 C 62.445312 166.113281 62.660156 166.96875 62.253906 167.410156 Z M 66.023438 173.660156 C 65.515625 174.019531 64.648438 173.683594 64.09375 172.910156 C 63.539062 172.136719 63.503906 171.210938 64.015625 170.851562 C 64.523438 170.488281 65.390625 170.824219 65.945312 171.601562 C 66.496094 172.375 66.535156 173.300781 66.023438 173.660156 Z M 71.441406 178.363281 C 71.09375 178.925781 70.113281 178.949219 69.253906 178.425781 C 68.394531 177.898438 67.976562 177.019531 68.320312 176.460938 C 68.664062 175.898438 69.644531 175.875 70.503906 176.398438 C 71.363281 176.925781 71.785156 177.804688 71.441406 178.363281 Z M 76.558594 182.96875 C 75.496094 182.839844 74.703125 182.175781 74.796875 181.484375 C 74.878906 180.796875 75.816406 180.34375 76.875 180.476562 C 77.941406 180.605469 78.730469 181.269531 78.640625 181.960938 C 78.554688 182.644531 77.625 183.101562 76.558594 182.96875 Z M 84.816406 184.164062 C 83.679688 184.101562 82.796875 183.449219 82.839844 182.71875 C 82.886719 181.988281 83.839844 181.445312 84.976562 181.511719 C 86.109375 181.574219 86.996094 182.226562 86.949219 182.953125 C 86.90625 183.691406 85.949219 184.230469 84.816406 184.164062 Z M 92.605469 183.386719 C 91.394531 183.386719 90.414062 182.753906 90.414062 181.980469 C 90.414062 181.203125 91.394531 180.574219 92.605469 180.574219 C 93.816406 180.574219 94.796875 181.203125 94.796875 181.980469 C 94.796875 182.753906 93.808594 183.386719 92.605469 183.386719 Z M 92.605469 183.386719 "/>
</g>
</svg>
