<?xml version="1.0" encoding="UTF-8"?>
<svg xmlns="http://www.w3.org/2000/svg" xmlns:xlink="http://www.w3.org/1999/xlink" width="240pt" height="240pt" viewBox="0 0 240 240" version="1.1">
<g id="surface1429452">
<path style=" stroke:none;fill-rule:nonzero;fill:rgb(100%,100%,100%);fill-opacity:1;" d="M 218.0625 38.238281 L 211.265625 42.269531 C 204.363281 46.359375 196.722656 49.300781 188.625 51.046875 C 181.03125 43.640625 170.71875 38.976562 159.28125 38.976562 C 136.019531 38.976562 117.082031 57.914062 117.082031 81.1875 C 117.082031 83.027344 117.457031 84.773438 117.691406 86.566406 C 87.480469 84.035156 60.714844 69.457031 42.609375 47.261719 L 39.878906 43.898438 L 37.699219 47.648438 C 34.066406 53.882812 31.980469 61.136719 31.980469 68.859375 C 31.980469 79.488281 36 89.15625 42.492188 96.585938 C 40.289062 95.859375 38.121094 95.074219 36.128906 93.972656 L 31.675781 91.488281 L 31.675781 97.078125 C 31.675781 112.792969 40.371094 126.386719 53.144531 133.640625 C 51.75 133.546875 50.332031 133.511719 48.984375 133.253906 L 44.015625 132.304688 L 45.5625 137.109375 C 50.144531 151.417969 62.320312 161.882812 77.191406 165.023438 C 65.367188 172.617188 51.457031 177.199219 36.351562 177.199219 C 33.304688 177.199219 30.304688 177.035156 27.351562 176.671875 L 14.390625 175.125 L 25.382812 182.191406 C 43.195312 193.605469 64.371094 200.261719 87.09375 200.261719 C 123.972656 200.261719 152.765625 184.898438 172.148438 162.902344 C 191.53125 140.917969 201.621094 112.394531 201.621094 85.734375 C 201.621094 84.46875 201.585938 83.226562 201.550781 81.984375 C 208.921875 76.417969 215.425781 69.714844 220.570312 62.027344 L 226.324219 53.414062 L 216.855469 57.621094 C 213.316406 59.203125 209.695312 60.445312 205.980469 61.453125 C 210.1875 56.953125 213.703125 51.855469 215.660156 45.761719 Z M 159.28125 44.976562 C 169.710938 44.976562 179.109375 49.371094 185.71875 56.414062 L 186.84375 57.621094 L 188.484375 57.304688 C 194.648438 56.085938 200.4375 53.953125 206.015625 51.445312 C 203.085938 56.378906 199.476562 60.761719 194.472656 63.761719 L 192.082031 65.191406 L 194.34375 69.703125 L 196.441406 69.457031 C 200.8125 68.917969 204.984375 67.992188 209.039062 66.808594 C 205.3125 71.003906 201.304688 74.941406 196.757812 78.234375 L 195.457031 79.171875 L 195.515625 80.789062 C 195.585938 82.429688 195.621094 84.082031 195.621094 85.734375 C 195.621094 110.871094 186.011719 138.117188 167.648438 158.941406 C 149.285156 179.765625 122.320312 194.261719 87.09375 194.261719 C 69.878906 194.261719 53.707031 190.101562 39.257812 182.953125 C 57.164062 182.320312 73.6875 176.132812 86.894531 165.785156 L 93.527344 160.582031 L 85.089844 160.417969 C 70.980469 160.160156 59.226562 151.628906 53.484375 139.675781 C 54.257812 139.722656 54.996094 139.898438 55.78125 139.898438 C 59.636719 139.898438 63.375 139.382812 66.914062 138.421875 L 79.125 135.070312 L 66.703125 132.574219 C 51.5625 129.539062 40.324219 116.90625 38.425781 101.355469 C 42.796875 103.066406 47.402344 104.332031 52.324219 104.484375 L 62.8125 104.824219 L 54.09375 99 C 44.378906 92.507812 37.980469 81.445312 37.980469 68.859375 C 37.980469 63.65625 39.351562 58.863281 41.308594 54.398438 C 61.089844 76.710938 89.179688 91.523438 120.9375 93.105469 L 124.910156 93.316406 L 124.019531 89.4375 C 123.398438 86.789062 123.082031 84.023438 123.082031 81.1875 C 123.082031 61.160156 139.265625 44.976562 159.28125 44.976562 Z M 159 51 C 157.347656 51 156 52.347656 156 54 C 156 55.652344 157.347656 57 159 57 C 160.652344 57 162 55.652344 162 54 C 162 52.347656 160.652344 51 159 51 Z M 145.417969 54.609375 C 144.925781 54.632812 144.433594 54.761719 144 55.019531 C 142.558594 55.851562 142.066406 57.679688 142.898438 59.109375 C 143.730469 60.550781 145.558594 61.042969 147 60.222656 C 147.679688 59.824219 148.183594 59.167969 148.394531 58.394531 C 148.605469 57.621094 148.5 56.800781 148.089844 56.109375 C 147.550781 55.160156 146.519531 54.585938 145.417969 54.609375 Z M 135.46875 64.5 C 134.460938 64.558594 133.535156 65.121094 133.019531 66 C 132.621094 66.691406 132.515625 67.511719 132.714844 68.273438 C 132.925781 69.046875 133.429688 69.703125 134.109375 70.101562 C 135.550781 70.933594 137.378906 70.429688 138.210938 69 C 139.042969 67.570312 138.550781 65.730469 137.109375 64.910156 C 136.617188 64.617188 136.042969 64.476562 135.46875 64.5 Z M 132 78 C 130.347656 78 129 79.347656 129 81 C 129 82.652344 130.347656 84 132 84 C 133.652344 84 135 82.652344 135 81 C 135 79.347656 133.652344 78 132 78 Z M 72 105 C 70.347656 105 69 106.347656 69 108 C 69 109.652344 70.347656 111 72 111 C 73.652344 111 75 109.652344 75 108 C 75 106.347656 73.652344 105 72 105 Z M 84 108 C 82.347656 108 81 109.347656 81 111 C 81 112.652344 82.347656 114 84 114 C 85.652344 114 87 112.652344 87 111 C 87 109.347656 85.652344 108 84 108 Z M 96 111 C 94.347656 111 93 112.347656 93 114 C 93 115.652344 94.347656 117 96 117 C 97.652344 117 99 115.652344 99 114 C 99 112.347656 97.652344 111 96 111 Z M 87 132 C 85.347656 132 84 133.347656 84 135 C 84 136.652344 85.347656 138 87 138 C 88.652344 138 90 136.652344 90 135 C 90 133.347656 88.652344 132 87 132 Z M 99 132 C 97.347656 132 96 133.347656 96 135 C 96 136.652344 97.347656 138 99 138 C 100.652344 138 102 136.652344 102 135 C 102 133.347656 100.652344 132 99 132 Z M 102 153 C 100.347656 153 99 154.347656 99 156 C 99 157.652344 100.347656 159 102 159 C 103.652344 159 105 157.652344 105 156 C 105 154.347656 103.652344 153 102 153 Z M 102 153 "/>
</g>
</svg>
